PathFileType	4	(X/Y/Z)	8_coords_data.trc
DataRate	CameraRate	NumFrames	NumMarkers	Units	OrigDataRate	OrigDataStartFrame	OrigNumFrames
30.0	30.0	6	21	m	30.0	47	56
Frame#	Time	THUMB_TIP	THUMB_IP	THUMB_MCP	THUMB_CMC	INDEX_TIP	INDEX_DIP	INDEX_PIP	INDEX_MCP	MIDDLE_TIP	MIDDLE_DIP	MIDDLE_PIP	MIDDLE_MCP	RING_TIP	RING_DIP	RING_PIP	RING_MCP	PINKY_TIP	PINKY_DIP	PINKY_PIP	PINKY_MCP	WRIST
X1	Y1	Z1	X2	Y2	Z2	X3	Y3	Z3	X4	Y4	Z4	X5	Y5	Z5	X6	Y6	Z6	X7	Y7	Z7	X8	Y8	Z8	X9	Y9	Z9	X10	Y10	Z10	X11	Y11	Z11	X12	Y12	Z12	X13	Y13	Z13	X14	Y14	Z14	X15	Y15	Z15	X16	Y16	Z16	X17	Y17	Z17	X18	Y18	Z18	X19	Y19	Z19	X20	Y20	Z20	X21	Y21	Z21
45	1.5333333333333266	0.567769185620734	0.012308901949166118	-0.10153609403403535	0.5455923885917842	0.007688894522417389	-0.09768314647229087	0.5169354367658625	0.0044460122779421685	-0.08597490891084414	0.4771596251624193	-0.011514328622702186	-0.07360388107874316	0.5761601095657283	-0.07045401899451509	-0.16543551273964402	0.5662613527468475	-0.06194333911087779	-0.1528823083137249	0.5534879401204353	-0.05222217612650337	-0.1335342140120464	0.5279250021376739	-0.035364673683832226	-0.1039369690881547	0.5639100884597916	-0.09743437815810896	-0.16960214767380627	0.5547625578117208	-0.08866520389144927	-0.1566628947694242	0.5415871355411512	-0.0768665041169212	-0.13349808348975406	0.516539143225759	-0.054241778285112896	-0.10422577946353218	0.5426087946224967	-0.10999840382526094	-0.16355842013562638	0.5339461005481048	-0.10201123834434556	-0.14991426684735054	0.5228030734283917	-0.09093235495760665	-0.1305940373323478	0.5010604322424993	-0.0661249132925329	-0.10721521729592365	0.5118399365914672	-0.12056952060993675	-0.150365975989794	0.5045667336550892	-0.10975523628302875	-0.1392685991131149	0.49655732200012237	-0.09620979131694485	-0.1253695968247462	0.48130256716279585	-0.0702794732400921	-0.10547501187591368	0.4622830810018609	-0.023011742144276925	-0.051989820119430985
46	1.5666666666666598	0.5694811437285453	0.008569647277077874	-0.09993765752147848	0.5470701486608538	0.0048961601948961375	-0.09643725858236357	0.5180445850636524	0.0028475787228219307	-0.08538556315509593	0.4776439003229036	-0.011788884997579685	-0.07340856009756958	0.5774564933706305	-0.07283873708860178	-0.16331995053200804	0.5672710012409254	-0.06400790614486984	-0.15122564712424874	0.5540681032016246	-0.05385435887736212	-0.13239485334782192	0.5280211819145432	-0.03645325630385243	-0.10354358622329524	0.5627780132936283	-0.10053238582917579	-0.16848438448980324	0.5537961201527137	-0.09106598501972563	-0.15592600675539697	0.5408733297163368	-0.07844368917387512	-0.13305487462519155	0.5163227229020577	-0.055083355277376955	-0.10393940749353114	0.5413413555531444	-0.11247374485787698	-0.16258545626208615	0.5328612278521059	-0.10387224384181859	-0.14920257113051505	0.5220420662116084	-0.09214522127284597	-0.1300818320740978	0.5007099287566384	-0.06671449345818048	-0.10699636416853725	0.5108600382462942	-0.1217082836773784	-0.14964135217143404	0.5037003997495002	-0.1106629427794561	-0.13869877381695517	0.4958282338950394	-0.09686057165552675	-0.12497523290663665	0.4808435271061735	-0.07050706142621799	-0.10543464662972485	0.462283081001861	-0.023011742144276925	-0.051989820119430985
48	1.600000000000001	0.5699946222594088	0.006900523288518201	-0.09981126964908471	0.5475222888975597	0.0035368911648960832	-0.09639363710434501	0.5184077782913791	0.0020107210831348254	-0.08549244097528952	0.47784369692401896	-0.012081881222985813	-0.073415857722411	0.578931593926288	-0.07433962030105767	-0.16130244305962277	0.5684496971905868	-0.06531119062508417	-0.14961410278360004	0.5548236302021331	-0.054844452177666536	-0.13126233126966913	0.528137190250117	-0.037083303177266824	-0.10322643280229254	0.5628549381101946	-0.10241592591087068	-0.16711939849333146	0.5539147911384801	-0.09258763363078504	-0.15481174059341596	0.5409487284902262	-0.07945384449919779	-0.1322552702922239	0.5163523081324745	-0.05558048573459051	-0.10359821587483614	0.5412998638866868	-0.114097925012416	-0.16128389561545875	0.532847692083917	-0.10517107172564066	-0.14809783925986636	0.522038723994443	-0.09303418186115431	-0.12922876158611513	0.5007295492018095	-0.0671425853243286	-0.1066397126368735	0.510702627794782	-0.12273679700615814	-0.1486158064860837	0.503555848726375	-0.11150593600356107	-0.1378551694190822	0.495721592946052	-0.09748257051998654	-0.12433549206041111	0.4808352211024096	-0.07078813786094984	-0.10518642813172335	0.4622830810018608	-0.023011742144276925	-0.051989820119430985
49	1.6333333333333344	0.5701565458237641	0.005763273406445224	-0.10022672428766954	0.5476683261108368	0.002561566609085575	-0.09675843252848199	0.5185492248210406	0.0013888407665304525	-0.08582579084530251	0.4779516347519752	-0.01237353334965563	-0.07348388097404435	0.5804060248518339	-0.0752973219263986	-0.1594199993625509	0.5696411787415558	-0.06612831483938697	-0.14810419637467775	0.5556174124033053	-0.05541683989375801	-0.13019866328629076	0.5282795884781507	-0.03742764537033838	-0.10294672101723745	0.5630216368022367	-0.10378446793614582	-0.16593617526324111	0.5541718255293251	-0.09365511989625364	-0.15380863846797305	0.5412292583267407	-0.08009390739277666	-0.1314928812627575	0.5165234702106035	-0.05583751624140809	-0.10325461922572088	0.541424943859617	-0.1152868475441503	-0.1601711341399934	0.5330498336557241	-0.10609752963056751	-0.1471168641352879	0.5223040485907363	-0.09363364951009301	-0.12842569577481533	0.5009507605334276	-0.06740903552346156	-0.10626655444682664	0.5108632249356865	-0.12355140695548983	-0.14766273092335808	0.5037205870581168	-0.11217113692026148	-0.1370574408247709	0.495909030587357	-0.0979697684873484	-0.1237115523516571	0.4810588350746019	-0.07101330746850754	-0.10490452298568159	0.4622830810018609	-0.023011742144276925	-0.051989820119430985
50	1.6666666666666679	0.57009370355078	0.005090754731432612	-0.10090693719129018	0.5476173055999043	0.0019403672463575994	-0.09731714696792648	0.5185411785699716	0.0009727070969712814	-0.08625087068479909	0.4779908965725955	-0.012629365903143563	-0.07358010748628496	0.5817479867290691	-0.075869321832853	-0.1577678716855907	0.5707277503784289	-0.06660167123882754	-0.14678310754414975	0.5563494058038942	-0.05570237699109348	-0.12927658232646994	0.5284103989040732	-0.037575967860061454	-0.10273451610196155	0.5632536014874623	-0.10475202384490179	-0.16493625128663647	0.554501389542673	-0.0943813182441956	-0.1529426174996239	0.541599228914661	-0.08047457623343601	-0.130816923662477	0.5167439115313104	-0.055933108570038303	-0.1029587563914715	0.5416350756431746	-0.11613129192513183	-0.1592575580986908	0.5333504804174292	-0.10673506547281142	-0.14629312944169737	0.5226824506714467	-0.09401622831600132	-0.12772960871643135	0.501246895574795	-0.06755500992456642	-0.1059341566004689	0.5111524525251062	-0.1241996767228275	-0.14681852463805617	0.5040134954358745	-0.11269542546095235	-0.1363453448639022	0.49621847124267127	-0.09834709709578249	-0.12314780380684781	0.4813760025514674	-0.07118227652535858	-0.10463680444086776	0.4622830810018609	-0.023011742144276925	-0.051989820119430985
51	1.700000000000001	0.5699293581613768	0.004819877687509577	-0.10156302154340047	0.5474765538750529	0.0016476322823422151	-0.09784705077260147	0.518456693406461	0.000754894679030893	-0.08662783877018809	0.47798547897989174	-0.012813885206039877	-0.07367179711892957	0.5828257368183309	-0.07621558709763943	-0.15644568156398364	0.5715915462979835	-0.06687606511720601	-0.14574211708622498	0.556918973462779	-0.05583402398462922	-0.12857241216674248	0.5284895905186858	-0.0376177461525693	-0.10261911755192882	0.5635257024856675	-0.10542630565270938	-0.1641202445305041	0.5548353913789883	-0.09487588131739733	-0.1522388709056246	0.5419403399996428	-0.08070584308085116	-0.13027669395754254	0.5169201084189428	-0.05594609062963429	-0.10276141472576655	0.541847220559556	-0.11671735150154638	-0.15855322126734778	0.5336298377101695	-0.10716476883054227	-0.14566047976601282	0.5230156098838007	-0.09425416243209483	-0.12719877916519295	0.5014901544326452	-0.06762234086777041	-0.10570176351682192	0.5113776526539678	-0.12472777931542278	-0.1461210599118593	0.504250513598291	-0.11311488222423427	-0.13576034034078177	0.4964752841531549	-0.09863931856611385	-0.12269068530114152	0.48164653844393424	-0.0712956573913458	-0.10443374291609925	0.4622830810018609	-0.023011742144276925	-0.051989820119430985
